<?xml version="1.0" encoding="iso-8859-1"?>
<!-- Generator: Adobe Illustrator 16.0.0, SVG Export Plug-In . SVG Version: 6.00 Build 0)  -->
<!DOCTYPE svg PUBLIC "-//W3C//DTD SVG 1.1//EN" "http://www.w3.org/Graphics/SVG/1.1/DTD/svg11.dtd">
<svg version="1.1" id="Capa_1" xmlns="http://www.w3.org/2000/svg" xmlns:xlink="http://www.w3.org/1999/xlink" x="0px" y="0px"
	 width="573.75px" height="573.75px" viewBox="0 0 573.75 573.75" style="enable-background:new 0 0 573.75 573.75;"
	 xml:space="preserve">
<g>
	<g>
		<path d="M468.562,38.25c0-21.038-17.213-38.25-38.25-38.25H143.438c-21.038,0-38.25,17.212-38.25,38.25V153h363.375V38.25z"/>
		<path d="M105.188,535.5c0,21.037,17.212,38.25,38.25,38.25h286.875c21.037,0,38.25-17.213,38.25-38.25v-153H105.188V535.5z
			 M143.438,439.875h286.875V459H143.438V439.875z M143.438,497.25h286.875v19.125H143.438V497.25z"/>
		<path d="M506.812,172.125H66.938c-32.513,0-57.375,24.862-57.375,57.375v172.125C9.562,434.138,34.425,459,66.938,459h19.125
			v-95.625h401.625V459h19.125c32.513,0,57.375-24.862,57.375-57.375V229.5C564.188,196.987,539.325,172.125,506.812,172.125z
			 M449.438,286.875c-11.475,0-19.125-7.65-19.125-19.125s7.65-19.125,19.125-19.125s19.125,7.65,19.125,19.125
			S460.912,286.875,449.438,286.875z"/>
	</g>
</g>
<g>
</g>
<g>
</g>
<g>
</g>
<g>
</g>
<g>
</g>
<g>
</g>
<g>
</g>
<g>
</g>
<g>
</g>
<g>
</g>
<g>
</g>
<g>
</g>
<g>
</g>
<g>
</g>
<g>
</g>
</svg>
